<?xml version="1.0" encoding="UTF-8"?>
<!DOCTYPE svg PUBLIC "-//W3C//DTD SVG 1.1//EN" "http://www.w3.org/Graphics/SVG/1.1/DTD/svg11.dtd">
<svg xmlns="http://www.w3.org/2000/svg" version="1.1" width="200px" height="200px" style="shape-rendering:geometricPrecision; text-rendering:geometricPrecision; image-rendering:optimizeQuality; fill-rule:evenodd; clip-rule:evenodd" xmlns:xlink="http://www.w3.org/1999/xlink">
<g><path style="opacity:0.99" fill="#5042d6" d="M 108.5,24.5 C 105.583,27.2405 102.249,29.4071 98.5,31C 99.1667,31.3333 99.8333,31.6667 100.5,32C 99.1667,33 97.8333,34 96.5,35C 97.1667,35.3333 97.8333,35.6667 98.5,36C 96.2262,36.4702 94.2262,37.4702 92.5,39C 93.1667,39.3333 93.8333,39.6667 94.5,40C 93.1667,40.3333 91.8333,40.6667 90.5,41C 91.1667,41.3333 91.8333,41.6667 92.5,42C 91.1667,42.3333 89.8333,42.6667 88.5,43C 89.1667,43.3333 89.8333,43.6667 90.5,44C 88.7738,45.5298 86.7738,46.5298 84.5,47C 85.1667,47.3333 85.8333,47.6667 86.5,48C 83.8333,50.3333 81.1667,52.6667 78.5,55C 79.1667,55.3333 79.8333,55.6667 80.5,56C 79.1667,56.3333 77.8333,56.6667 76.5,57C 77.4158,57.2784 78.0825,57.7784 78.5,58.5C 73.1667,58.5 67.8333,58.5 62.5,58.5C 61.0679,56.3531 59.2345,56.0198 57,57.5C 55.7619,60.9257 56.9286,62.5923 60.5,62.5C 62.2495,66.3346 64.2495,70.0012 66.5,73.5C 66.8333,74.8333 67.1667,76.1667 67.5,77.5C 67.5,84.5 67.5,91.5 67.5,98.5C 58.1429,98.1684 48.8096,98.5017 39.5,99.5C 39.6236,100.107 39.9569,100.44 40.5,100.5C 40.9175,101.222 41.5842,101.722 42.5,102C 40.5,102.333 38.5,102.667 36.5,103C 37.1667,103.333 37.8333,103.667 38.5,104C 35.8333,106.333 33.1667,108.667 30.5,111C 31.8333,111.333 33.1667,111.667 34.5,112C 32.4971,112.335 30.8304,113.168 29.5,114.5C 29.1671,95.8214 29.5004,77.1548 30.5,58.5C 52.8333,45.6667 75.1667,32.8333 97.5,20C 101.845,19.8457 105.512,21.3457 108.5,24.5 Z"/></g>
<g><path style="opacity:0.99" fill="#5247d8" d="M 108.5,24.5 C 114.738,27.4042 120.738,30.7375 126.5,34.5C 125.496,37.1837 123.496,38.6837 120.5,39C 121.167,39.3333 121.833,39.6667 122.5,40C 121.167,41 119.833,42 118.5,43C 119.167,43.3333 119.833,43.6667 120.5,44C 119.167,44.3333 117.833,44.6667 116.5,45C 117.167,45.3333 117.833,45.6667 118.5,46C 116.5,47 114.5,48 112.5,49C 113.167,49.3333 113.833,49.6667 114.5,50C 113.167,50.3333 111.833,50.6667 110.5,51C 111.167,51.3333 111.833,51.6667 112.5,52C 111.167,53 109.833,54 108.5,55C 109.167,55.3333 109.833,55.6667 110.5,56C 108.563,56.1216 107.23,56.955 106.5,58.5C 104.5,58.5 102.5,58.5 100.5,58.5C 99.8333,33.1667 99.1667,33.1667 98.5,58.5C 91.8333,58.5 85.1667,58.5 78.5,58.5C 78.0825,57.7784 77.4158,57.2784 76.5,57C 77.8333,56.6667 79.1667,56.3333 80.5,56C 79.8333,55.6667 79.1667,55.3333 78.5,55C 81.1667,52.6667 83.8333,50.3333 86.5,48C 85.8333,47.6667 85.1667,47.3333 84.5,47C 86.7738,46.5298 88.7738,45.5298 90.5,44C 89.8333,43.6667 89.1667,43.3333 88.5,43C 89.8333,42.6667 91.1667,42.3333 92.5,42C 91.8333,41.6667 91.1667,41.3333 90.5,41C 91.8333,40.6667 93.1667,40.3333 94.5,40C 93.8333,39.6667 93.1667,39.3333 92.5,39C 94.2262,37.4702 96.2262,36.4702 98.5,36C 97.8333,35.6667 97.1667,35.3333 96.5,35C 97.8333,34 99.1667,33 100.5,32C 99.8333,31.6667 99.1667,31.3333 98.5,31C 102.249,29.4071 105.583,27.2405 108.5,24.5 Z"/></g>
<g><path style="opacity:0.987" fill="#564dd9" d="M 126.5,34.5 C 136.367,39.9294 146.033,45.596 155.5,51.5C 153.369,52.3138 151.036,52.8138 148.5,53C 149.833,53.3333 151.167,53.6667 152.5,54C 149.833,54.3333 147.167,54.6667 144.5,55C 147.833,55.3333 151.167,55.6667 154.5,56C 151.833,56.3333 149.167,56.6667 146.5,57C 147.833,57.3333 149.167,57.6667 150.5,58C 147.854,58.4974 145.187,58.6641 142.5,58.5C 140.5,55.8333 138.5,55.8333 136.5,58.5C 126.5,58.5 116.5,58.5 106.5,58.5C 107.23,56.955 108.563,56.1216 110.5,56C 109.833,55.6667 109.167,55.3333 108.5,55C 109.833,54 111.167,53 112.5,52C 111.833,51.6667 111.167,51.3333 110.5,51C 111.833,50.6667 113.167,50.3333 114.5,50C 113.833,49.6667 113.167,49.3333 112.5,49C 114.5,48 116.5,47 118.5,46C 117.833,45.6667 117.167,45.3333 116.5,45C 117.833,44.6667 119.167,44.3333 120.5,44C 119.833,43.6667 119.167,43.3333 118.5,43C 119.833,42 121.167,41 122.5,40C 121.833,39.6667 121.167,39.3333 120.5,39C 123.496,38.6837 125.496,37.1837 126.5,34.5 Z"/></g>
<g><path style="opacity:0.993" fill="#5b55db" d="M 155.5,51.5 C 159.114,53.3068 162.78,55.1401 166.5,57C 168.063,57.7589 169.063,58.9256 169.5,60.5C 167.567,60.7286 165.9,61.5619 164.5,63C 165.167,63.3333 165.833,63.6667 166.5,64C 165.167,64.3333 163.833,64.6667 162.5,65C 163.167,65.3333 163.833,65.6667 164.5,66C 163.167,66.3333 161.833,66.6667 160.5,67C 161.167,67.3333 161.833,67.6667 162.5,68C 160.774,69.5298 158.774,70.5298 156.5,71C 157.167,71.3333 157.833,71.6667 158.5,72C 157.167,73 155.833,74 154.5,75C 155.167,75.3333 155.833,75.6667 156.5,76C 155.167,76.3333 153.833,76.6667 152.5,77C 153.167,77.3333 153.833,77.6667 154.5,78C 152.5,79 150.5,80 148.5,81C 149.167,81.3333 149.833,81.6667 150.5,82C 149.167,82.3333 147.833,82.6667 146.5,83C 147.167,83.3333 147.833,83.6667 148.5,84C 147.167,85 145.833,86 144.5,87C 145.167,87.3333 145.833,87.6667 146.5,88C 144.226,88.4702 142.226,89.4702 140.5,91C 141.167,91.3333 141.833,91.6667 142.5,92C 140.226,92.4702 138.226,93.4702 136.5,95C 137.167,95.3333 137.833,95.6667 138.5,96C 137.244,96.4169 136.577,97.2502 136.5,98.5C 135.167,98.5 133.833,98.5 132.5,98.5C 132.5,90.8333 132.5,83.1667 132.5,75.5C 132.5,74.8333 132.5,74.1667 132.5,73.5C 133.69,71.1738 135.69,70.0072 138.5,70C 137.484,69.4806 136.818,68.6473 136.5,67.5C 137.187,65.8228 137.854,64.1561 138.5,62.5C 141.5,62.8333 142.833,61.5 142.5,58.5C 145.187,58.6641 147.854,58.4974 150.5,58C 149.167,57.6667 147.833,57.3333 146.5,57C 149.167,56.6667 151.833,56.3333 154.5,56C 151.167,55.6667 147.833,55.3333 144.5,55C 147.167,54.6667 149.833,54.3333 152.5,54C 151.167,53.6667 149.833,53.3333 148.5,53C 151.036,52.8138 153.369,52.3138 155.5,51.5 Z"/></g>
<g><path style="opacity:1" fill="#f0effb" d="M 62.5,58.5 C 62.5,59.1667 62.5,59.8333 62.5,60.5C 62.5,60.8333 62.5,61.1667 62.5,61.5C 61.8333,61.8333 61.1667,62.1667 60.5,62.5C 56.9286,62.5923 55.7619,60.9257 57,57.5C 59.2345,56.0198 61.0679,56.3531 62.5,58.5 Z"/></g>
<g><path style="opacity:1" fill="#f1f0fc" d="M 142.5,58.5 C 142.833,61.5 141.5,62.8333 138.5,62.5C 137.833,62.1667 137.167,61.8333 136.5,61.5C 136.5,61.1667 136.5,60.8333 136.5,60.5C 136.5,59.8333 136.5,59.1667 136.5,58.5C 138.5,55.8333 140.5,55.8333 142.5,58.5 Z"/></g>
<g><path style="opacity:1" fill="#7e76e2" d="M 106.5,58.5 C 116.5,58.5 126.5,58.5 136.5,58.5C 136.5,59.1667 136.5,59.8333 136.5,60.5C 124.5,60.5 112.5,60.5 100.5,60.5C 100.334,68.5069 100.5,76.5069 101,84.5C 104.244,78.4251 108.411,73.0917 113.5,68.5C 113.5,69.1667 113.5,69.8333 113.5,70.5C 109.209,76.7915 104.542,82.7915 99.5,88.5C 94.7903,83.1233 90.457,77.4566 86.5,71.5C 88.0174,71.5106 89.1841,72.1772 90,73.5C 91.9544,77.2816 94.4544,80.6149 97.5,83.5C 98.4975,75.8622 98.8308,68.1955 98.5,60.5C 86.5,60.5 74.5,60.5 62.5,60.5C 62.5,59.8333 62.5,59.1667 62.5,58.5C 67.8333,58.5 73.1667,58.5 78.5,58.5C 85.1667,58.5 91.8333,58.5 98.5,58.5C 99.1667,33.1667 99.8333,33.1667 100.5,58.5C 102.5,58.5 104.5,58.5 106.5,58.5 Z"/></g>
<g><path style="opacity:1" fill="#554ad8" d="M 62.5,60.5 C 74.5,60.5 86.5,60.5 98.5,60.5C 98.8308,68.1955 98.4975,75.8622 97.5,83.5C 94.4544,80.6149 91.9544,77.2816 90,73.5C 89.1841,72.1772 88.0174,71.5106 86.5,71.5C 86.5,69.5 85.5,68.5 83.5,68.5C 78.6835,67.6739 73.6835,67.1739 68.5,67C 66.2368,65.383 64.2368,63.5497 62.5,61.5C 62.5,61.1667 62.5,60.8333 62.5,60.5 Z"/></g>
<g><path style="opacity:1" fill="#584fd9" d="M 136.5,60.5 C 136.5,60.8333 136.5,61.1667 136.5,61.5C 135.375,63.1288 134.041,64.6288 132.5,66C 126.833,66.3333 121.167,66.6667 115.5,67C 114.944,67.3826 114.611,67.8826 114.5,68.5C 114.167,68.5 113.833,68.5 113.5,68.5C 108.411,73.0917 104.244,78.4251 101,84.5C 100.5,76.5069 100.334,68.5069 100.5,60.5C 112.5,60.5 124.5,60.5 136.5,60.5 Z"/></g>
<g><path style="opacity:1" fill="#766fe0" d="M 136.5,61.5 C 137.167,61.8333 137.833,62.1667 138.5,62.5C 137.854,64.1561 137.187,65.8228 136.5,67.5C 136.818,68.6473 137.484,69.4806 138.5,70C 135.69,70.0072 133.69,71.1738 132.5,73.5C 131.883,73.6107 131.383,73.944 131,74.5C 130.505,72.5273 130.338,70.5273 130.5,68.5C 125.167,68.5 119.833,68.5 114.5,68.5C 114.611,67.8826 114.944,67.3826 115.5,67C 121.167,66.6667 126.833,66.3333 132.5,66C 134.041,64.6288 135.375,63.1288 136.5,61.5 Z"/></g>
<g><path style="opacity:1" fill="#7266de" d="M 62.5,61.5 C 64.2368,63.5497 66.2368,65.383 68.5,67C 73.6835,67.1739 78.6835,67.6739 83.5,68.5C 78.5,68.5 73.5,68.5 68.5,68.5C 68.6621,70.5273 68.4955,72.5273 68,74.5C 67.6174,73.944 67.1174,73.6107 66.5,73.5C 64.2495,70.0012 62.2495,66.3346 60.5,62.5C 61.1667,62.1667 61.8333,61.8333 62.5,61.5 Z"/></g>
<g><path style="opacity:1" fill="#fefefe" d="M 86.5,71.5 C 90.457,77.4566 94.7903,83.1233 99.5,88.5C 104.542,82.7915 109.209,76.7915 113.5,70.5C 118.74,69.5509 124.073,69.2175 129.5,69.5C 129.5,89.5 129.5,109.5 129.5,129.5C 125.167,129.5 120.833,129.5 116.5,129.5C 115.833,129.5 115.167,129.5 114.5,129.5C 114.5,128.833 114.5,128.167 114.5,127.5C 114.667,115.162 114.5,102.829 114,90.5C 109.283,96.377 104.783,102.377 100.5,108.5C 99.8333,108.5 99.1667,108.5 98.5,108.5C 95.1357,104.143 91.8024,99.8093 88.5,95.5C 87.8358,93.513 86.6692,91.8463 85,90.5C 84.5001,103.162 84.3334,115.829 84.5,128.5C 84.5,129.167 84.1667,129.5 83.5,129.5C 78.8333,129.5 74.1667,129.5 69.5,129.5C 69.5,109.5 69.5,89.5 69.5,69.5C 74.5111,69.3341 79.5111,69.5007 84.5,70C 85.0442,70.7172 85.7109,71.2172 86.5,71.5 Z"/></g>
<g><path style="opacity:1" fill="#5d5adc" d="M 169.5,60.5 C 169.5,71.1667 169.5,81.8333 169.5,92.5C 168.691,93.4687 167.691,94.3021 166.5,95C 167.167,95.3333 167.833,95.6667 168.5,96C 167.167,96.3333 165.833,96.6667 164.5,97C 165.167,97.3333 165.833,97.6667 166.5,98C 165.167,98.3333 163.833,98.6667 162.5,99C 163.167,99.3333 163.833,99.6667 164.5,100C 163.167,100.333 161.833,100.667 160.5,101C 161.167,101.333 161.833,101.667 162.5,102C 161.167,102.333 159.833,102.667 158.5,103C 159.167,103.333 159.833,103.667 160.5,104C 157.833,106.333 155.167,108.667 152.5,111C 153.167,111.333 153.833,111.667 154.5,112C 152.226,112.47 150.226,113.47 148.5,115C 149.167,115.333 149.833,115.667 150.5,116C 149.167,116.333 147.833,116.667 146.5,117C 147.167,117.333 147.833,117.667 148.5,118C 147.167,118.333 145.833,118.667 144.5,119C 145.167,119.333 145.833,119.667 146.5,120C 144.774,121.53 142.774,122.53 140.5,123C 141.167,123.333 141.833,123.667 142.5,124C 141.167,125 139.833,126 138.5,127C 139.167,127.333 139.833,127.667 140.5,128C 139.167,128.333 137.833,128.667 136.5,129C 139.063,129.763 139.063,130.263 136.5,130.5C 135.833,130.333 135.167,130.167 134.5,130C 135.174,128.249 135.507,126.583 135.5,125C 134.874,124.25 134.374,123.416 134,122.5C 133.5,115.174 133.334,107.841 133.5,100.5C 142.192,100.831 150.859,100.498 159.5,99.5C 151.862,98.5025 144.196,98.1692 136.5,98.5C 136.577,97.2502 137.244,96.4169 138.5,96C 137.833,95.6667 137.167,95.3333 136.5,95C 138.226,93.4702 140.226,92.4702 142.5,92C 141.833,91.6667 141.167,91.3333 140.5,91C 142.226,89.4702 144.226,88.4702 146.5,88C 145.833,87.6667 145.167,87.3333 144.5,87C 145.833,86 147.167,85 148.5,84C 147.833,83.6667 147.167,83.3333 146.5,83C 147.833,82.6667 149.167,82.3333 150.5,82C 149.833,81.6667 149.167,81.3333 148.5,81C 150.5,80 152.5,79 154.5,78C 153.833,77.6667 153.167,77.3333 152.5,77C 153.833,76.6667 155.167,76.3333 156.5,76C 155.833,75.6667 155.167,75.3333 154.5,75C 155.833,74 157.167,73 158.5,72C 157.833,71.6667 157.167,71.3333 156.5,71C 158.774,70.5298 160.774,69.5298 162.5,68C 161.833,67.6667 161.167,67.3333 160.5,67C 161.833,66.6667 163.167,66.3333 164.5,66C 163.833,65.6667 163.167,65.3333 162.5,65C 163.833,64.6667 165.167,64.3333 166.5,64C 165.833,63.6667 165.167,63.3333 164.5,63C 165.9,61.5619 167.567,60.7286 169.5,60.5 Z"/></g>
<g><path style="opacity:0.989" fill="#605fdd" d="M 169.5,92.5 C 169.833,108.514 169.499,124.514 168.5,140.5C 146.167,153.333 123.833,166.167 101.5,179C 100.167,179.667 98.8333,179.667 97.5,179C 93.2676,176.725 89.2676,174.225 85.5,171.5C 86.3976,169.373 88.0643,168.206 90.5,168C 85.1667,167.333 85.1667,166.667 90.5,166C 89.8333,165.667 89.1667,165.333 88.5,165C 90.5,164 92.5,163 94.5,162C 93.8333,161.667 93.1667,161.333 92.5,161C 97.8333,160.333 97.8333,159.667 92.5,159C 94.4727,158.505 96.4727,158.338 98.5,158.5C 98.5,153.167 98.5,147.833 98.5,142.5C 102.444,142.116 103.444,140.116 101.5,136.5C 100.303,128.852 100.303,120.185 101.5,110.5C 102.914,109.376 104.414,108.376 106,107.5C 108.066,109.31 109.9,111.31 111.5,113.5C 110.778,115.944 109.778,118.278 108.5,120.5C 108.938,121.506 109.604,121.506 110.5,120.5C 111.314,122.766 111.814,125.1 112,127.5C 112.708,128.381 113.542,129.047 114.5,129.5C 114.804,130.15 115.137,130.817 115.5,131.5C 121.187,132.208 126.854,132.875 132.5,133.5C 132.833,133.167 133.167,132.833 133.5,132.5C 132.18,121.705 132.18,111.039 133.5,100.5C 133.334,107.841 133.5,115.174 134,122.5C 134.374,123.416 134.874,124.25 135.5,125C 135.507,126.583 135.174,128.249 134.5,130C 135.167,130.167 135.833,130.333 136.5,130.5C 139.063,130.263 139.063,129.763 136.5,129C 137.833,128.667 139.167,128.333 140.5,128C 139.833,127.667 139.167,127.333 138.5,127C 139.833,126 141.167,125 142.5,124C 141.833,123.667 141.167,123.333 140.5,123C 142.774,122.53 144.774,121.53 146.5,120C 145.833,119.667 145.167,119.333 144.5,119C 145.833,118.667 147.167,118.333 148.5,118C 147.833,117.667 147.167,117.333 146.5,117C 147.833,116.667 149.167,116.333 150.5,116C 149.833,115.667 149.167,115.333 148.5,115C 150.226,113.47 152.226,112.47 154.5,112C 153.833,111.667 153.167,111.333 152.5,111C 155.167,108.667 157.833,106.333 160.5,104C 159.833,103.667 159.167,103.333 158.5,103C 159.833,102.667 161.167,102.333 162.5,102C 161.833,101.667 161.167,101.333 160.5,101C 161.833,100.667 163.167,100.333 164.5,100C 163.833,99.6667 163.167,99.3333 162.5,99C 163.833,98.6667 165.167,98.3333 166.5,98C 165.833,97.6667 165.167,97.3333 164.5,97C 165.833,96.6667 167.167,96.3333 168.5,96C 167.833,95.6667 167.167,95.3333 166.5,95C 167.691,94.3021 168.691,93.4687 169.5,92.5 Z"/></g>
<g><path style="opacity:1" fill="#a6a1eb" d="M 88.5,95.5 C 87.5,95.5 86.5,95.5 85.5,95.5C 85.334,100.844 85.5006,106.177 86,111.5C 86.2784,112.416 86.7784,113.082 87.5,113.5C 87.5,114.167 87.5,114.833 87.5,115.5C 86.8826,115.389 86.3826,115.056 86,114.5C 85.8255,119.351 85.3255,124.018 84.5,128.5C 84.3334,115.829 84.5001,103.162 85,90.5C 86.6692,91.8463 87.8358,93.513 88.5,95.5 Z"/></g>
<g><path style="opacity:1" fill="#a29eea" d="M 114.5,127.5 C 113.787,122.632 113.121,117.632 112.5,112.5C 113.789,106.857 113.789,101.19 112.5,95.5C 110.404,97.5938 108.571,99.9271 107,102.5C 106.51,103.793 106.343,105.127 106.5,106.5C 104.315,106.704 102.315,107.37 100.5,108.5C 104.783,102.377 109.283,96.377 114,90.5C 114.5,102.829 114.667,115.162 114.5,127.5 Z"/></g>
<g><path style="opacity:1" fill="#7471e0" d="M 132.5,75.5 C 132.5,83.1667 132.5,90.8333 132.5,98.5C 133.833,98.5 135.167,98.5 136.5,98.5C 144.196,98.1692 151.862,98.5025 159.5,99.5C 150.859,100.498 142.192,100.831 133.5,100.5C 132.18,111.039 132.18,121.705 133.5,132.5C 133.167,132.833 132.833,133.167 132.5,133.5C 126.854,132.875 121.187,132.208 115.5,131.5C 115.137,130.817 114.804,130.15 114.5,129.5C 115.167,129.5 115.833,129.5 116.5,129.5C 120.97,130.486 125.637,130.819 130.5,130.5C 130.849,112.749 131.016,95.0824 131,77.5C 131.278,76.5842 131.778,75.9175 132.5,75.5 Z"/></g>
<g><path style="opacity:0.998" fill="#5348d8" d="M 40.5,100.5 C 48.1667,100.5 55.8333,100.5 63.5,100.5C 63.5808,103.005 63.5808,105.505 63.5,108C 60.4557,108.359 60.1224,109.026 62.5,110C 61.1667,110.333 59.8333,110.667 58.5,111C 59.1667,111.333 59.8333,111.667 60.5,112C 58.5,113 56.5,114 54.5,115C 55.1667,115.333 55.8333,115.667 56.5,116C 55.1667,117 53.8333,118 52.5,119C 53.1667,119.333 53.8333,119.667 54.5,120C 52.2262,120.47 50.2262,121.47 48.5,123C 49.1667,123.333 49.8333,123.667 50.5,124C 48.2262,124.47 46.2262,125.47 44.5,127C 45.1667,127.333 45.8333,127.667 46.5,128C 44.7738,129.53 42.7738,130.53 40.5,131C 41.1667,131.333 41.8333,131.667 42.5,132C 40.7738,133.53 38.7738,134.53 36.5,135C 37.1667,135.333 37.8333,135.667 38.5,136C 37.1667,137 35.8333,138 34.5,139C 35.1667,139.333 35.8333,139.667 36.5,140C 34.9419,140.21 33.6085,140.71 32.5,141.5C 31.8501,141.196 31.1835,140.863 30.5,140.5C 29.502,131.859 29.1686,123.192 29.5,114.5C 30.8304,113.168 32.4971,112.335 34.5,112C 33.1667,111.667 31.8333,111.333 30.5,111C 33.1667,108.667 35.8333,106.333 38.5,104C 37.8333,103.667 37.1667,103.333 36.5,103C 38.5,102.667 40.5,102.333 42.5,102C 41.5842,101.722 40.9175,101.222 40.5,100.5 Z"/></g>
<g><path style="opacity:0.991" fill="#574ed9" d="M 63.5,100.5 C 64.8333,100.5 66.1667,100.5 67.5,100.5C 67.1734,109.682 67.5067,118.682 68.5,127.5C 68.5,128.5 68.5,129.5 68.5,130.5C 64.6269,133.186 61.7936,136.519 60,140.5C 62.7028,137.629 65.5361,134.962 68.5,132.5C 69.4293,133.315 70.4293,134.148 71.5,135C 75.8333,135.333 80.1667,135.667 84.5,136C 81.8333,136.333 79.1667,136.667 76.5,137C 77.1667,137.333 77.8333,137.667 78.5,138C 70.5,138.667 70.5,139.333 78.5,140C 75.1667,141 71.8333,142 68.5,143C 81.8333,143.667 81.8333,144.333 68.5,145C 70.5,145.333 72.5,145.667 74.5,146C 61.1667,146.667 61.1667,147.333 74.5,148C 71.1667,148.333 67.8333,148.667 64.5,149C 65.8333,149.333 67.1667,149.667 68.5,150C 65.8333,150.333 63.1667,150.667 60.5,151C 63.8333,151.333 67.1667,151.667 70.5,152C 67.5837,153.905 63.2504,155.072 57.5,155.5C 48.9972,151.083 40.6639,146.417 32.5,141.5C 33.6085,140.71 34.9419,140.21 36.5,140C 35.8333,139.667 35.1667,139.333 34.5,139C 35.8333,138 37.1667,137 38.5,136C 37.8333,135.667 37.1667,135.333 36.5,135C 38.7738,134.53 40.7738,133.53 42.5,132C 41.8333,131.667 41.1667,131.333 40.5,131C 42.7738,130.53 44.7738,129.53 46.5,128C 45.8333,127.667 45.1667,127.333 44.5,127C 46.2262,125.47 48.2262,124.47 50.5,124C 49.8333,123.667 49.1667,123.333 48.5,123C 50.2262,121.47 52.2262,120.47 54.5,120C 53.8333,119.667 53.1667,119.333 52.5,119C 53.8333,118 55.1667,117 56.5,116C 55.8333,115.667 55.1667,115.333 54.5,115C 56.5,114 58.5,113 60.5,112C 59.8333,111.667 59.1667,111.333 58.5,111C 59.8333,110.667 61.1667,110.333 62.5,110C 60.1224,109.026 60.4557,108.359 63.5,108C 63.5808,105.505 63.5808,103.005 63.5,100.5 Z"/></g>
<g><path style="opacity:1" fill="#766ee0" d="M 67.5,77.5 C 68.4965,93.9916 68.8298,110.658 68.5,127.5C 67.5067,118.682 67.1734,109.682 67.5,100.5C 66.1667,100.5 64.8333,100.5 63.5,100.5C 55.8333,100.5 48.1667,100.5 40.5,100.5C 39.9569,100.44 39.6236,100.107 39.5,99.5C 48.8096,98.5017 58.1429,98.1684 67.5,98.5C 67.5,91.5 67.5,84.5 67.5,77.5 Z"/></g>
<g><path style="opacity:1" fill="#9992e8" d="M 83.5,68.5 C 85.5,68.5 86.5,69.5 86.5,71.5C 85.7109,71.2172 85.0442,70.7172 84.5,70C 79.5111,69.5007 74.5111,69.3341 69.5,69.5C 69.5,89.5 69.5,109.5 69.5,129.5C 74.1667,129.5 78.8333,129.5 83.5,129.5C 78.6946,130.487 73.6946,130.821 68.5,130.5C 68.5,129.5 68.5,128.5 68.5,127.5C 68.8298,110.658 68.4965,93.9916 67.5,77.5C 67.1667,76.1667 66.8333,74.8333 66.5,73.5C 67.1174,73.6107 67.6174,73.944 68,74.5C 68.4955,72.5273 68.6621,70.5273 68.5,68.5C 73.5,68.5 78.5,68.5 83.5,68.5 Z"/></g>
<g><path style="opacity:1" fill="#9c99e9" d="M 113.5,68.5 C 113.833,68.5 114.167,68.5 114.5,68.5C 119.833,68.5 125.167,68.5 130.5,68.5C 130.338,70.5273 130.505,72.5273 131,74.5C 131.383,73.944 131.883,73.6107 132.5,73.5C 132.5,74.1667 132.5,74.8333 132.5,75.5C 131.778,75.9175 131.278,76.5842 131,77.5C 131.016,95.0824 130.849,112.749 130.5,130.5C 125.637,130.819 120.97,130.486 116.5,129.5C 120.833,129.5 125.167,129.5 129.5,129.5C 129.5,109.5 129.5,89.5 129.5,69.5C 124.073,69.2175 118.74,69.5509 113.5,70.5C 113.5,69.8333 113.5,69.1667 113.5,68.5 Z"/></g>
<g><path style="opacity:1" fill="#8a84e4" d="M 88.5,95.5 C 91.8024,99.8093 95.1357,104.143 98.5,108.5C 96.6854,107.37 94.6854,106.704 92.5,106.5C 93.1606,101.832 91.1606,99.8321 86.5,100.5C 85.9709,104.351 86.6375,107.851 88.5,111C 87.7476,111.671 87.4142,112.504 87.5,113.5C 86.7784,113.082 86.2784,112.416 86,111.5C 85.5006,106.177 85.334,100.844 85.5,95.5C 86.5,95.5 87.5,95.5 88.5,95.5 Z"/></g>
<g><path style="opacity:1" fill="#7670e0" d="M 114.5,127.5 C 114.5,128.167 114.5,128.833 114.5,129.5C 113.542,129.047 112.708,128.381 112,127.5C 111.814,125.1 111.314,122.766 110.5,120.5C 109.604,121.506 108.938,121.506 108.5,120.5C 109.778,118.278 110.778,115.944 111.5,113.5C 109.9,111.31 108.066,109.31 106,107.5C 104.414,108.376 102.914,109.376 101.5,110.5C 100.303,120.185 100.303,128.852 101.5,136.5C 100.167,136.5 98.8333,136.5 97.5,136.5C 97.1961,135.85 96.8627,135.183 96.5,134.5C 96.8457,133.304 97.3457,133.304 98,134.5C 98.4998,125.84 98.6664,117.173 98.5,108.5C 99.1667,108.5 99.8333,108.5 100.5,108.5C 102.315,107.37 104.315,106.704 106.5,106.5C 106.343,105.127 106.51,103.793 107,102.5C 108.571,99.9271 110.404,97.5938 112.5,95.5C 113.789,101.19 113.789,106.857 112.5,112.5C 113.121,117.632 113.787,122.632 114.5,127.5 Z"/></g>
<g><path style="opacity:1" fill="#726bdf" d="M 87.5,115.5 C 89.0591,117.608 90.3924,119.941 91.5,122.5C 90.675,123.386 89.675,123.719 88.5,123.5C 89.1776,127.273 87.8442,130.106 84.5,132C 78.9265,132.362 73.5932,132.529 68.5,132.5C 65.5361,134.962 62.7028,137.629 60,140.5C 61.7936,136.519 64.6269,133.186 68.5,130.5C 73.6946,130.821 78.6946,130.487 83.5,129.5C 84.1667,129.5 84.5,129.167 84.5,128.5C 85.3255,124.018 85.8255,119.351 86,114.5C 86.3826,115.056 86.8826,115.389 87.5,115.5 Z"/></g>
<g><path style="opacity:0.989" fill="#5c56db" d="M 98.5,108.5 C 98.6664,117.173 98.4998,125.84 98,134.5C 97.3457,133.304 96.8457,133.304 96.5,134.5C 96.8627,135.183 97.1961,135.85 97.5,136.5C 95.9378,138.901 96.2712,140.901 98.5,142.5C 98.5,147.833 98.5,153.167 98.5,158.5C 96.4727,158.338 94.4727,158.505 92.5,159C 97.8333,159.667 97.8333,160.333 92.5,161C 93.1667,161.333 93.8333,161.667 94.5,162C 92.5,163 90.5,164 88.5,165C 89.1667,165.333 89.8333,165.667 90.5,166C 85.1667,166.667 85.1667,167.333 90.5,168C 88.0643,168.206 86.3976,169.373 85.5,171.5C 75.8331,166.669 66.4998,161.336 57.5,155.5C 63.2504,155.072 67.5837,153.905 70.5,152C 67.1667,151.667 63.8333,151.333 60.5,151C 63.1667,150.667 65.8333,150.333 68.5,150C 67.1667,149.667 65.8333,149.333 64.5,149C 67.8333,148.667 71.1667,148.333 74.5,148C 61.1667,147.333 61.1667,146.667 74.5,146C 72.5,145.667 70.5,145.333 68.5,145C 81.8333,144.333 81.8333,143.667 68.5,143C 71.8333,142 75.1667,141 78.5,140C 70.5,139.333 70.5,138.667 78.5,138C 77.8333,137.667 77.1667,137.333 76.5,137C 79.1667,136.667 81.8333,136.333 84.5,136C 80.1667,135.667 75.8333,135.333 71.5,135C 70.4293,134.148 69.4293,133.315 68.5,132.5C 73.5932,132.529 78.9265,132.362 84.5,132C 87.8442,130.106 89.1776,127.273 88.5,123.5C 89.675,123.719 90.675,123.386 91.5,122.5C 90.3924,119.941 89.0591,117.608 87.5,115.5C 87.5,114.833 87.5,114.167 87.5,113.5C 87.4142,112.504 87.7476,111.671 88.5,111C 86.6375,107.851 85.9709,104.351 86.5,100.5C 91.1606,99.8321 93.1606,101.832 92.5,106.5C 94.6854,106.704 96.6854,107.37 98.5,108.5 Z"/></g>
<g><path style="opacity:1" fill="#f2f1fc" d="M 97.5,136.5 C 98.8333,136.5 100.167,136.5 101.5,136.5C 103.444,140.116 102.444,142.116 98.5,142.5C 96.2712,140.901 95.9378,138.901 97.5,136.5 Z"/></g>
</svg>
